<svg width="31" height="30" viewBox="0 0 31 30" fill="none" xmlns="http://www.w3.org/2000/svg">
<path d="M4.16129 0.60702C3.38023 -0.17402 2.11391 -0.17402 1.33285 0.60702C0.55181 1.38808 0.55181 2.6544 1.33285 3.43546L12.8823 14.9849L1.33297 26.5343C0.55193 27.3153 0.55193 28.5817 1.33297 29.3627C2.11403 30.1437 3.38035 30.1437 4.16139 29.3627L15.7107 17.8133L27.2601 29.3627C28.0411 30.1437 29.3075 30.1437 30.0885 29.3627C30.8695 28.5817 30.8695 27.3153 30.0885 26.5343L18.5391 14.9849L30.0887 3.43546C30.8697 2.6544 30.8697 1.38808 30.0887 0.60702C29.3077 -0.17402 28.0413 -0.17402 27.2603 0.60702L15.7107 12.1565L4.16129 0.60702Z" fill="white"/>
</svg>
