<svg
          width="200"
          height="200"
          viewBox="0 0 309 311"
          fill="none"
          xmlns="http://www.w3.org/2000/svg"
        >
          <path
            d="M96.0261 224.456C96.2779 226.651 98.2613 228.226 100.456 227.974L136.221 223.87C138.416 223.618 139.991 221.635 139.739 219.44C139.487 217.245 137.504 215.67 135.309 215.922L103.518 219.57L99.8697 187.779C99.6178 185.584 97.6345 184.009 95.4398 184.261C93.245 184.513 91.67 186.496 91.9219 188.691L96.0261 224.456ZM204.868 85.5125L96.8676 221.512L103.132 226.488L211.132 90.4875L204.868 85.5125Z"
            fill="white"
          />
          <path
            d="M283.583 156.453L301.064 157.258L300.557 168.271L298.11 168.158L298.493 159.842L293.473 159.611L293.122 167.228L290.675 167.115L291.026 159.498L285.906 159.263L285.517 167.704L283.07 167.591L283.583 156.453Z"
            fill="#D9D9D9"
          />
          <path
            d="M283.004 168.59L288.461 174.163L295.177 170.521L294.728 173.512L289.872 176.044L289.813 176.439L293.709 180.286L293.256 183.302L287.911 177.822L281.057 181.544L281.514 178.504L286.475 175.938L286.535 175.542L282.547 171.631L283.004 168.59Z"
            fill="#D9D9D9"
          />
          <path
            d="M275.782 182.385L292.495 186.952L291.829 189.387L290.117 188.919L290.011 189.305C290.458 189.756 290.807 190.343 291.059 191.069C291.305 191.81 291.27 192.759 290.954 193.917C290.682 194.914 290.192 195.756 289.486 196.444C288.775 197.148 287.894 197.625 286.841 197.872C285.8 198.141 284.636 198.099 283.35 197.748L282.989 197.649C281.702 197.298 280.669 196.748 279.889 195.999C279.125 195.254 278.616 194.398 278.362 193.43C278.108 192.463 278.117 191.48 278.39 190.484C278.601 189.712 278.875 189.087 279.213 188.609C279.551 188.131 279.908 187.771 280.286 187.529C280.679 187.291 281.063 187.119 281.437 187.014L281.542 186.628L275.104 184.869L275.782 182.385ZM280.758 190.353C280.459 191.446 280.561 192.433 281.063 193.313C281.566 194.194 282.46 194.809 283.746 195.161L283.963 195.22C285.233 195.567 286.311 195.482 287.195 194.963C288.076 194.461 288.663 193.671 288.957 192.594C289.247 191.533 289.143 190.554 288.645 189.658C288.143 188.777 287.256 188.164 285.986 187.817L285.769 187.757C284.483 187.406 283.4 187.481 282.52 187.984C281.635 188.502 281.048 189.292 280.758 190.353Z"
            fill="#D9D9D9"
          />
          <path
            d="M275.999 199.234L292.42 205.285L291.529 207.702L275.109 201.651L275.999 199.234Z"
            fill="#D9D9D9"
          />
          <path
            d="M271.158 210.152C271.678 209.033 272.368 208.141 273.229 207.475C274.098 206.831 275.079 206.46 276.172 206.361C277.265 206.263 278.401 206.487 279.58 207.035L279.92 207.193C281.099 207.741 281.996 208.46 282.611 209.352C283.241 210.251 283.59 211.241 283.658 212.32C283.72 213.414 283.491 214.521 282.971 215.639C282.451 216.758 281.754 217.647 280.878 218.306C280.002 218.965 279.017 219.343 277.924 219.442C276.846 219.548 275.717 219.327 274.538 218.779L274.198 218.621C273.019 218.073 272.115 217.35 271.485 216.451C270.855 215.552 270.509 214.555 270.448 213.461C270.402 212.373 270.639 211.27 271.158 210.152ZM273.244 211.121C272.767 212.149 272.706 213.131 273.061 214.068C273.424 215.027 274.187 215.776 275.351 216.317L275.555 216.412C276.719 216.953 277.773 217.056 278.718 216.724C279.678 216.398 280.401 215.713 280.885 214.67C281.355 213.658 281.409 212.672 281.046 211.713C280.691 210.776 279.931 210.037 278.768 209.497L278.563 209.402C277.4 208.861 276.338 208.754 275.378 209.08C274.426 209.428 273.715 210.108 273.244 211.121Z"
            fill="#D9D9D9"
          />
          <path
            d="M267.185 218.822L277.815 225.06L276.537 227.238L275.286 226.504L275.084 226.849C275.428 227.283 275.591 227.746 275.573 228.238C275.561 228.752 275.391 229.29 275.062 229.851L274.315 231.123L272.31 229.946L273.107 228.588C273.529 227.869 273.674 227.161 273.541 226.465C273.423 225.777 272.954 225.193 272.135 224.712L265.882 221.043L267.185 218.822Z"
            fill="#D9D9D9"
          />
          <path
            d="M258.996 231.057C259.72 230.039 260.564 229.299 261.526 228.838C262.502 228.387 263.531 228.22 264.614 228.336C265.701 228.475 266.761 228.912 267.793 229.647L268.038 229.821C269.083 230.565 269.843 231.423 270.318 232.394C270.806 233.376 270.995 234.39 270.884 235.436C270.777 236.506 270.371 237.536 269.666 238.528C268.98 239.492 268.164 240.179 267.217 240.59C266.274 241.023 265.278 241.173 264.227 241.04C263.177 240.906 262.143 240.477 261.124 239.752L260.33 239.187L265.823 231.467C264.921 230.866 264.007 230.655 263.081 230.835C262.16 231.038 261.399 231.561 260.8 232.403C260.239 233.19 259.996 233.907 260.069 234.552C260.132 235.21 260.317 235.813 260.624 236.358L258.496 237.452C258.251 236.991 258.048 236.428 257.888 235.762C257.718 235.109 257.699 234.389 257.829 233.602C257.959 232.816 258.348 231.967 258.996 231.057ZM267.418 232.632L263.461 238.193C264.26 238.68 265.044 238.828 265.813 238.639C266.595 238.459 267.267 237.976 267.827 237.188C268.387 236.401 268.629 235.601 268.552 234.789C268.479 234.001 268.101 233.282 267.418 232.632Z"
            fill="#D9D9D9"
          />
          <path
            d="M253.615 246.671L255.312 248.297L250.193 253.641L248.496 252.015L253.615 246.671Z"
            fill="#D9D9D9"
          />
          <path
            d="M237.908 254.706L248.756 268.438L240.105 275.272L238.586 273.349L245.119 268.189L242.004 264.246L236.021 268.972L234.502 267.05L240.485 262.323L237.309 258.302L230.678 263.54L229.159 261.617L237.908 254.706Z"
            fill="#D9D9D9"
          />
          <path
            d="M228.371 262.2L227.714 269.973L234.858 272.681L232.299 274.294L227.211 272.269L226.873 272.483L226.503 277.946L223.923 279.572L224.584 271.945L217.288 269.184L219.89 267.545L225.073 269.627L225.412 269.414L225.77 263.84L228.371 262.2Z"
            fill="#D9D9D9"
          />
          <path
            d="M213.446 265.594L220.942 281.213L218.665 282.306L217.897 280.705L217.537 280.878C217.489 281.511 217.274 282.16 216.89 282.825C216.492 283.497 215.752 284.092 214.67 284.611C213.738 285.058 212.781 285.24 211.798 285.157C210.801 285.082 209.863 284.727 208.986 284.094C208.102 283.483 207.371 282.577 206.794 281.375L206.632 281.037C206.055 279.835 205.794 278.694 205.849 277.614C205.911 276.549 206.224 275.603 206.79 274.778C207.355 273.952 208.103 273.316 209.034 272.868C209.756 272.522 210.408 272.32 210.99 272.263C211.572 272.205 212.079 272.24 212.509 272.366C212.947 272.507 213.328 272.685 213.652 272.899L214.013 272.726L211.125 266.708L213.446 265.594ZM210.684 274.573C209.662 275.063 208.983 275.786 208.647 276.742C208.311 277.698 208.432 278.778 209.009 279.98L209.106 280.183C209.676 281.37 210.446 282.128 211.417 282.456C212.373 282.792 213.355 282.719 214.362 282.236C215.353 281.76 216.025 281.04 216.376 280.077C216.712 279.121 216.595 278.049 216.025 276.862L215.928 276.659C215.351 275.457 214.585 274.688 213.629 274.352C212.657 274.023 211.676 274.097 210.684 274.573Z"
            fill="#D9D9D9"
          />
          <path
            d="M200.832 276.775L207.015 293.146L204.606 294.056L198.423 277.685L200.832 276.775Z"
            fill="#D9D9D9"
          />
          <path
            d="M189.343 280.246C190.53 279.912 191.657 279.855 192.723 280.075C193.777 280.316 194.697 280.819 195.484 281.585C196.27 282.35 196.839 283.359 197.191 284.611L197.293 284.972C197.644 286.223 197.682 287.373 197.405 288.42C197.132 289.483 196.608 290.392 195.834 291.146C195.043 291.905 194.054 292.452 192.866 292.785C191.679 293.119 190.55 293.168 189.48 292.932C188.409 292.696 187.481 292.195 186.694 291.429C185.912 290.68 185.346 289.679 184.994 288.428L184.892 288.067C184.541 286.815 184.501 285.658 184.774 284.594C185.046 283.531 185.578 282.62 186.369 281.861C187.164 281.118 188.155 280.58 189.343 280.246ZM189.965 282.46C188.874 282.767 188.088 283.36 187.608 284.239C187.117 285.139 187.045 286.207 187.392 287.442L187.453 287.659C187.8 288.894 188.407 289.762 189.275 290.263C190.147 290.779 191.137 290.882 192.244 290.571C193.319 290.269 194.102 289.668 194.594 288.768C195.074 287.889 195.14 286.831 194.793 285.596L194.732 285.379C194.385 284.144 193.776 283.268 192.903 282.751C192.019 282.255 191.04 282.158 189.965 282.46Z"
            fill="#D9D9D9"
          />
          <path
            d="M180.346 282.835L182.53 294.965L180.045 295.412L179.788 293.985L179.394 294.056C179.289 294.6 179.044 295.025 178.659 295.331C178.26 295.657 177.741 295.878 177.101 295.993L175.65 296.254L175.238 293.966L176.788 293.687C177.608 293.539 178.239 293.189 178.681 292.635C179.126 292.097 179.265 291.361 179.097 290.426L177.812 283.291L180.346 282.835Z"
            fill="#D9D9D9"
          />
          <path
            d="M165.621 284.58C166.866 284.469 167.976 284.629 168.952 285.06C169.929 285.508 170.725 286.182 171.341 287.08C171.942 287.997 172.299 289.086 172.412 290.348L172.439 290.647C172.553 291.925 172.395 293.06 171.965 294.052C171.537 295.061 170.889 295.864 170.022 296.46C169.14 297.075 168.093 297.436 166.882 297.545C165.703 297.65 164.65 297.477 163.723 297.024C162.78 296.59 162.018 295.93 161.437 295.045C160.856 294.16 160.509 293.095 160.398 291.85L160.311 290.879L169.748 290.034C169.618 288.958 169.184 288.127 168.446 287.54C167.692 286.972 166.801 286.734 165.771 286.826C164.809 286.912 164.106 287.193 163.663 287.667C163.204 288.143 162.866 288.676 162.651 289.264L160.437 288.358C160.628 287.872 160.924 287.352 161.326 286.797C161.712 286.244 162.246 285.761 162.928 285.349C163.611 284.936 164.508 284.68 165.621 284.58ZM169.9 292.003L163.102 292.612C163.251 293.536 163.648 294.228 164.292 294.689C164.937 295.167 165.741 295.363 166.704 295.276C167.666 295.19 168.431 294.854 168.998 294.268C169.549 293.7 169.85 292.945 169.9 292.003Z"
            fill="#D9D9D9"
          />
          <path
            d="M149.843 290.595L149.706 292.941L142.319 292.51L142.456 290.164L149.843 290.595Z"
            fill="#D9D9D9"
          />
          <path
            d="M133.539 283.807L130.041 300.954L119.238 298.75L119.728 296.349L127.885 298.013L128.889 293.09L121.418 291.566L121.908 289.165L129.379 290.689L130.403 285.668L122.124 283.979L122.614 281.578L133.539 283.807Z"
            fill="#D9D9D9"
          />
          <path
            d="M121.719 281.36L115.352 285.866L117.885 293.074L115.002 292.157L113.272 286.962L112.89 286.841L108.475 290.079L105.569 289.154L111.826 284.744L109.236 277.387L112.166 278.319L113.914 283.625L114.295 283.746L118.789 280.427L121.719 281.36Z"
            fill="#D9D9D9"
          />
          <path
            d="M109.528 272.138L102.385 287.921L100.084 286.88L100.816 285.263L100.452 285.098C99.9366 285.469 99.3011 285.721 98.5455 285.854C97.7746 285.981 96.8426 285.797 95.7493 285.302C94.8079 284.876 94.0531 284.26 93.4849 283.454C92.9015 282.641 92.5703 281.696 92.4913 280.617C92.3902 279.547 92.6146 278.405 93.1644 277.19L93.319 276.848C93.8687 275.634 94.5748 274.7 95.4372 274.047C96.2928 273.41 97.2184 273.043 98.2141 272.944C99.2099 272.846 100.178 273.01 101.12 273.436C101.849 273.766 102.422 274.135 102.841 274.544C103.26 274.953 103.559 275.363 103.739 275.774C103.912 276.2 104.021 276.606 104.066 276.992L104.43 277.157L107.182 271.076L109.528 272.138ZM100.875 275.795C99.8429 275.328 98.8524 275.273 97.904 275.63C96.9556 275.988 96.2065 276.774 95.6568 277.989L95.564 278.194C95.0211 279.393 94.9359 280.471 95.3085 281.426C95.6659 282.374 96.3533 283.079 97.3706 283.539C98.3728 283.993 99.3557 284.044 100.319 283.694C101.268 283.336 102.013 282.558 102.556 281.358L102.649 281.153C103.199 279.938 103.295 278.857 102.937 277.909C102.565 276.953 101.878 276.249 100.875 275.795Z"
            fill="#D9D9D9"
          />
          <path
            d="M92.8796 269.685L84.3273 284.953L82.0808 283.695L90.6331 268.427L92.8796 269.685Z"
            fill="#D9D9D9"
          />
          <path
            d="M82.8206 263.128C83.8418 263.82 84.6123 264.644 85.1322 265.6C85.629 266.56 85.8386 267.588 85.7612 268.683C85.6838 269.778 85.2805 270.864 84.5514 271.94L84.3411 272.251C83.612 273.327 82.7581 274.097 81.7793 274.562C80.7911 275.04 79.7589 275.226 78.6826 275.121C77.5925 275.007 76.5369 274.604 75.5158 273.912C74.4947 273.22 73.7289 272.39 73.2183 271.42C72.7077 270.45 72.4911 269.417 72.5686 268.322C72.6367 267.241 73.0352 266.162 73.7643 265.086L73.9746 264.776C74.7037 263.699 75.5623 262.922 76.5505 262.444C77.5386 261.966 78.5778 261.784 79.6679 261.898C80.7486 262.027 81.7995 262.437 82.8206 263.128ZM81.5307 265.032C80.5924 264.397 79.6325 264.179 78.651 264.38C77.6464 264.585 76.7842 265.219 76.0645 266.282L75.9383 266.468C75.2186 267.531 74.9475 268.555 75.1251 269.541C75.2934 270.54 75.8536 271.363 76.8057 272.008C77.7302 272.634 78.6948 272.845 79.6994 272.639C80.6809 272.439 81.5315 271.807 82.2513 270.744L82.3775 270.558C83.0972 269.496 83.3729 268.465 83.2046 267.465C83.0132 266.47 82.4553 265.659 81.5307 265.032Z"
            fill="#D9D9D9"
          />
          <path
            d="M75.0198 257.905L67.17 267.406L65.2233 265.798L66.1468 264.68L65.8385 264.426C65.3552 264.697 64.8722 264.784 64.3896 264.688C63.8834 264.594 63.3798 264.34 62.8787 263.926L61.7415 262.987L63.2223 261.194L64.4366 262.197C65.079 262.728 65.7544 262.983 66.4628 262.963C67.1606 262.956 67.812 262.586 68.4171 261.854L73.0347 256.264L75.0198 257.905Z"
            fill="#D9D9D9"
          />
          <path
            d="M64.2387 247.858C65.1293 248.735 65.7258 249.685 66.0282 250.708C66.3189 251.743 66.3209 252.786 66.0343 253.837C65.724 254.889 65.1245 255.865 64.2356 256.768L64.0251 256.982C63.1246 257.896 62.157 258.51 61.1222 258.825C60.0758 259.151 59.0448 259.176 58.0291 258.901C56.9899 258.626 56.0369 258.062 55.1701 257.208C54.327 256.378 53.7779 255.463 53.5228 254.463C53.2442 253.463 53.2542 252.455 53.5529 251.44C53.8516 250.424 54.4396 249.47 55.3167 248.58L56.0009 247.885L62.7514 254.534C63.4878 253.739 63.8407 252.87 63.81 251.927C63.7557 250.985 63.3604 250.151 62.6242 249.426C61.9355 248.748 61.267 248.393 60.6185 248.363C59.9582 248.321 59.3342 248.408 58.7466 248.625L58.0045 246.35C58.4983 246.181 59.0867 246.07 59.7698 246.018C60.4411 245.954 61.1549 246.049 61.9111 246.302C62.6673 246.556 63.4431 247.075 64.2387 247.858ZM61.3477 255.924L56.4852 251.134C55.8777 251.846 55.6065 252.597 55.6714 253.386C55.7246 254.187 56.0956 254.926 56.7843 255.605C57.473 256.283 58.2242 256.649 59.0378 256.701C59.8278 256.754 60.5978 256.495 61.3477 255.924Z"
            fill="#D9D9D9"
          />
          <path
            d="M49.7326 240.105L47.8584 241.523L43.3942 235.621L45.2684 234.204L49.7326 240.105Z"
            fill="#D9D9D9"
          />
          <path
            d="M44.3261 223.366L29.0416 231.889L23.6724 222.26L25.8122 221.067L29.8665 228.338L34.2554 225.89L30.542 219.231L32.6818 218.038L36.3952 224.697L40.8714 222.201L36.7562 214.821L38.896 213.628L44.3261 223.366Z"
            fill="#D9D9D9"
          />
          <path
            d="M38.5132 212.886L30.9395 211.021L27.1469 217.653L25.9544 214.873L28.7497 210.165L28.5921 209.797L23.2541 208.577L22.0517 205.774L29.481 207.62L33.3491 200.847L34.5613 203.673L31.6937 208.466L31.8514 208.834L37.301 210.06L38.5132 212.886Z"
            fill="#D9D9D9"
          />
          <path
            d="M37.5032 197.628L20.8983 202.572L20.1779 200.152L21.8791 199.645L21.765 199.262C21.1475 199.115 20.5407 198.8 19.9447 198.317C19.3439 197.817 18.8723 196.993 18.53 195.843C18.2351 194.852 18.2061 193.878 18.4428 192.921C18.6747 191.948 19.1722 191.078 19.9353 190.312C20.6777 189.534 21.6878 188.955 22.9657 188.575L23.3252 188.468C24.6031 188.088 25.771 188.009 26.8289 188.234C27.8709 188.462 28.7551 188.921 29.4816 189.609C30.2081 190.297 30.7187 191.136 31.0136 192.126C31.2418 192.893 31.3386 193.569 31.3038 194.153C31.269 194.737 31.1554 195.232 30.963 195.637C30.7546 196.047 30.5192 196.395 30.2568 196.682L30.3709 197.065L36.7685 195.161L37.5032 197.628ZM29.0711 193.487C28.7477 192.401 28.1403 191.617 27.249 191.134C26.3576 190.652 25.273 190.601 23.9951 190.981L23.7794 191.045C22.5175 191.421 21.6477 192.063 21.1701 192.97C20.6877 193.861 20.6058 194.842 20.9244 195.912C21.2382 196.967 21.8432 197.743 22.7393 198.241C23.6307 198.724 24.7073 198.777 25.9693 198.401L26.1849 198.337C27.4628 197.957 28.343 197.321 28.8254 196.43C29.303 195.522 29.3849 194.541 29.0711 193.487Z"
            fill="#D9D9D9"
          />
          <path
            d="M28.4277 183.413L11.2851 186.932L10.7673 184.41L27.9099 180.891L28.4277 183.413Z"
            fill="#D9D9D9"
          />
          <path
            d="M26.7594 171.399C26.9054 172.624 26.7874 173.745 26.4054 174.765C26.0049 175.769 25.3655 176.601 24.4873 177.259C23.6091 177.918 22.5246 178.324 21.2338 178.478L20.8614 178.522C19.5706 178.676 18.4292 178.536 17.4373 178.1C16.4288 177.666 15.6119 177.008 14.9863 176.126C14.3588 175.228 13.9721 174.166 13.826 172.941C13.68 171.717 13.8062 170.594 14.2048 169.573C14.6034 168.552 15.2417 167.712 16.1199 167.053C16.9816 166.397 18.0578 165.991 19.3487 165.837L19.721 165.793C21.0119 165.639 22.1615 165.779 23.17 166.212C24.1784 166.646 24.9964 167.312 25.6239 168.211C26.2348 169.112 26.6133 170.174 26.7594 171.399ZM24.4756 171.671C24.3414 170.546 23.877 169.678 23.0825 169.068C22.2694 168.443 21.2258 168.207 19.9515 168.359L19.728 168.385C18.4537 168.537 17.5022 169.003 16.8735 169.783C16.2282 170.565 15.9737 171.527 16.1098 172.669C16.2421 173.778 16.7147 174.645 17.5277 175.269C18.3222 175.88 19.3567 176.109 20.631 175.957L20.8544 175.93C22.1287 175.778 23.0885 175.311 23.7338 174.529C24.3605 173.733 24.6078 172.78 24.4756 171.671Z"
            fill="#D9D9D9"
          />
          <path
            d="M25.5798 162.149L13.2593 162.48L13.1915 159.956L14.641 159.917L14.6303 159.517C14.1084 159.331 13.725 159.025 13.4802 158.598C13.2182 158.155 13.0785 157.608 13.061 156.958L13.0214 155.484L15.3456 155.422L15.3879 156.996C15.4102 157.829 15.6618 158.506 16.1426 159.027C16.6068 159.548 17.3137 159.795 18.2633 159.77L25.5107 159.575L25.5798 162.149Z"
            fill="#D9D9D9"
          />
          <path
            d="M26.0817 146.807C26.0003 148.054 25.6715 149.127 25.0951 150.024C24.5022 150.921 23.7143 151.604 22.7316 152.075C21.7334 152.527 20.6023 152.712 19.3383 152.63L19.0389 152.61C17.7583 152.527 16.6608 152.196 15.7465 151.619C14.8155 151.041 14.1221 150.277 13.6662 149.329C13.1947 148.363 12.9986 147.273 13.0779 146.058C13.1549 144.878 13.4883 143.864 14.078 143.017C14.6522 142.153 15.4212 141.501 16.3851 141.063C17.349 140.625 18.4546 140.447 19.702 140.528L20.6749 140.591L20.058 150.046C21.1412 150.084 22.0294 149.783 22.7225 149.143C23.4001 148.486 23.7725 147.641 23.8398 146.61C23.9027 145.646 23.7337 144.908 23.3327 144.398C22.9329 143.87 22.4589 143.455 21.9108 143.152L23.1468 141.104C23.5973 141.367 24.0657 141.74 24.552 142.222C25.0393 142.688 25.4343 143.29 25.7369 144.028C26.0395 144.766 26.1544 145.692 26.0817 146.807ZM18.0888 149.893L18.5332 143.082C17.5975 143.088 16.8523 143.374 16.2977 143.939C15.7264 144.503 15.4093 145.267 15.3464 146.232C15.2835 147.196 15.498 148.003 15.9901 148.654C16.4666 149.286 17.1662 149.699 18.0888 149.893Z"
            fill="#D9D9D9"
          />
          <path
            d="M22.3384 131.149L20.0382 130.668L21.5535 123.424L23.8537 123.906L22.3384 131.149Z"
            fill="#D9D9D9"
          />
          <path
            d="M31.5098 115.644L15.0667 109.655L18.8402 99.2957L21.1422 100.134L18.2929 107.956L23.0144 109.676L25.6242 102.512L27.9262 103.35L25.3164 110.515L30.1319 112.269L33.024 104.329L35.326 105.168L31.5098 115.644Z"
            fill="#D9D9D9"
          />
          <path
            d="M35.6052 104.397L32.0677 97.4454L24.5692 98.9089L25.8941 96.1895L31.2846 95.2285L31.4598 94.8689L28.8944 90.0315L30.2303 87.2897L33.6883 94.1192L41.343 92.6206L39.9962 95.3849L34.4939 96.3471L34.3187 96.7067L36.9521 101.633L35.6052 104.397Z"
            fill="#D9D9D9"
          />
          <path
            d="M46.3472 93.8441L31.7363 84.534L33.0932 82.4046L34.5901 83.3584L34.8051 83.0211C34.5114 82.4585 34.352 81.7937 34.3269 81.0267C34.3108 80.2457 34.6251 79.3491 35.27 78.3371C35.8253 77.4657 36.5421 76.8059 37.4206 76.3577C38.308 75.8955 39.2911 75.7018 40.3699 75.7766C41.4436 75.8284 42.5427 76.2125 43.6672 76.929L43.9834 77.1305C45.1079 77.847 45.9319 78.6784 46.4554 79.6247C46.9649 80.5619 47.1976 81.5304 47.1535 82.53C47.1094 83.5295 46.8098 84.4651 46.2545 85.3365C45.8246 86.0112 45.3775 86.5267 44.9133 86.8831C44.449 87.2394 44.0009 87.4776 43.5687 87.5975C43.1226 87.7084 42.7052 87.7586 42.3166 87.7482L42.1016 88.0855L47.7309 91.6725L46.3472 93.8441ZM43.9539 84.7599C44.5629 83.8041 44.7578 82.8315 44.5386 81.842C44.3193 80.8524 43.6474 79.9994 42.523 79.2829L42.3332 79.162C41.2228 78.4545 40.1684 78.2174 39.1699 78.4507C38.1804 78.67 37.3856 79.2505 36.7855 80.1922C36.1944 81.1199 36.004 82.0855 36.2143 83.089C36.4336 84.0786 37.0984 84.9271 38.2088 85.6347L38.3986 85.7556C39.523 86.4721 40.58 86.7207 41.5695 86.5014C42.568 86.2681 43.3628 85.6876 43.9539 84.7599Z"
            fill="#D9D9D9"
          />
          <path
            d="M51.287 77.4345L37.4075 66.7758L38.9758 64.7335L52.8554 75.3923L51.287 77.4345Z"
            fill="#D9D9D9"
          />
          <path
            d="M59.3524 68.2026C58.5222 69.1146 57.5968 69.7597 56.5763 70.138C55.5548 70.4927 54.5076 70.5536 53.4348 70.3208C52.3621 70.088 51.345 69.534 50.3837 68.6589L50.1064 68.4064C49.1451 67.5313 48.5045 66.5762 48.1845 65.5412C47.8523 64.495 47.8149 63.4467 48.0723 62.3964C48.341 61.3338 48.8905 60.3464 49.7207 59.4344C50.551 58.5224 51.4825 57.8829 52.5153 57.5158C53.5481 57.1488 54.6009 57.0817 55.6736 57.3145C56.7341 57.5361 57.7449 58.0845 58.7063 58.9596L58.9836 59.212C59.9449 60.0872 60.5917 61.0478 60.9239 62.0941C61.2562 63.1403 61.288 64.1947 61.0193 65.2574C60.7383 66.3088 60.1827 67.2905 59.3524 68.2026ZM57.6516 66.6542C58.4146 65.8162 58.7667 64.8971 58.7079 63.897C58.6481 62.8734 58.1437 61.9296 57.1947 61.0657L57.0283 60.9142C56.0793 60.0503 55.1042 59.636 54.103 59.6712C53.0895 59.6951 52.1957 60.1323 51.4215 60.9827C50.6698 61.8085 50.3239 62.7332 50.3837 63.7568C50.4424 64.7569 50.9463 65.6889 51.8953 66.5528L52.0617 66.7042C53.0107 67.5681 53.9919 67.9881 55.0054 67.9641C56.0179 67.9166 56.8999 67.48 57.6516 66.6542Z"
            fill="#D9D9D9"
          />
          <path
            d="M65.1906 61.6086L56.8668 52.5191L58.7289 50.8138L59.7082 51.8831L60.0032 51.613C59.8018 51.0969 59.782 50.6065 59.944 50.1417C60.1071 49.6534 60.4283 49.1898 60.9076 48.7508L61.9954 47.7547L63.5656 49.4693L62.4041 50.533C61.7895 51.0958 61.4432 51.7294 61.365 52.4337C61.2756 53.1258 61.5517 53.8221 62.1933 54.5228L67.0896 59.8696L65.1906 61.6086Z"
            fill="#D9D9D9"
          />
          <path
            d="M76.8775 52.0916C75.8826 52.8484 74.8574 53.3037 73.8017 53.4576C72.736 53.5982 71.7033 53.452 70.7037 53.0188C69.7072 52.5622 68.8255 51.8299 68.0586 50.8218L67.877 50.583C67.1 49.5616 66.6295 48.5165 66.4655 47.4476C66.2915 46.3654 66.4128 45.3412 66.8295 44.375C67.2495 43.3855 67.9436 42.5224 68.9119 41.7857C69.8537 41.0693 70.8376 40.6559 71.8635 40.5456C72.8926 40.4119 73.8887 40.5651 74.8517 41.0052C75.8147 41.4453 76.6747 42.1627 77.4315 43.1576L78.0218 43.9336L70.4808 49.6702C71.1632 50.5122 71.9731 50.9851 72.9105 51.0887C73.8511 51.1689 74.7326 50.8962 75.555 50.2706C76.3244 49.6853 76.7702 49.0739 76.8925 48.4364C77.0281 47.7888 77.0305 47.1588 76.8996 46.5463L79.2568 46.1352C79.3537 46.6479 79.3794 47.2461 79.3341 47.9297C79.302 48.6033 79.1068 49.2963 78.7483 50.0088C78.3898 50.7212 77.7662 51.4155 76.8775 52.0916ZM69.3049 48.0832L74.7368 43.951C74.1187 43.2486 73.4144 42.8734 72.6241 42.8254C71.8237 42.7642 71.0388 43.0262 70.2694 43.6115C69.5001 44.1968 69.0314 44.8883 68.8635 45.6862C68.6988 46.4606 68.846 47.2597 69.3049 48.0832Z"
            fill="#D9D9D9"
          />
          <path
            d="M86.2026 38.9978L85.0618 36.9433L91.5313 33.3508L92.6721 35.4053L86.2026 38.9978Z"
            fill="#D9D9D9"
          />
          <path
            d="M103.447 35.9558L97.2014 19.6081L107.5 15.6736L108.375 17.9623L100.598 20.9333L102.391 25.6274L109.514 22.9062L110.388 25.1949L103.266 27.9161L105.095 32.7036L112.988 29.688L113.862 31.9767L103.447 35.9558Z"
            fill="#D9D9D9"
          />
          <path
            d="M114.67 31.6245L117.621 24.4043L111.613 19.684L114.538 18.9102L118.787 22.363L119.174 22.2607L121.16 17.1579L124.108 16.3777L121.198 23.4578L127.334 28.2734L124.361 29.06L120.037 25.5234L119.651 25.6257L117.642 30.8379L114.67 31.6245Z"
            fill="#D9D9D9"
          />
          <path
            d="M130.375 32.6979L127.964 15.5414L130.465 15.1901L130.712 16.9478L131.108 16.8922C131.345 16.3035 131.747 15.7505 132.314 15.2332C132.897 14.7137 133.783 14.3704 134.971 14.2035C135.994 14.0597 136.962 14.1763 137.873 14.5531C138.801 14.9277 139.587 15.5494 140.23 16.4183C140.888 17.2683 141.31 18.3535 141.496 19.6739L141.548 20.0453C141.733 21.3656 141.636 22.5321 141.257 23.5448C140.875 24.5409 140.29 25.3468 139.501 25.9626C138.713 26.5783 137.807 26.958 136.783 27.1018C135.991 27.2131 135.309 27.208 134.736 27.0865C134.164 26.9649 133.692 26.7788 133.32 26.5281C132.946 26.2609 132.636 25.9762 132.392 25.6739L131.996 25.7295L132.925 32.3396L130.375 32.6979ZM135.728 24.978C136.85 24.8203 137.716 24.3368 138.326 23.5274C138.936 22.718 139.148 21.6531 138.963 20.3327L138.931 20.1099C138.748 18.8061 138.244 17.8503 137.418 17.2426C136.608 16.6326 135.651 16.4053 134.545 16.5607C133.456 16.7137 132.598 17.1961 131.971 18.0079C131.361 18.8173 131.148 19.8739 131.331 21.1778L131.362 21.4006C131.548 22.7209 132.045 23.6861 132.855 24.2961C133.681 24.9038 134.638 25.1311 135.728 24.978Z"
            fill="#D9D9D9"
          />
          <path
            d="M145.27 25.8462L144.319 8.37209L146.89 8.23214L147.841 25.7063L145.27 25.8462Z"
            fill="#D9D9D9"
          />
          <path
            d="M158.591 25.9541C157.358 25.911 156.268 25.6227 155.319 25.0892C154.388 24.5397 153.664 23.7806 153.147 22.8119C152.631 21.8433 152.395 20.7093 152.441 19.4101L152.454 19.0354C152.499 17.7362 152.813 16.6298 153.396 15.7163C153.978 14.7861 154.754 14.0794 155.721 13.5963C156.705 13.1137 157.814 12.894 159.046 12.9371C160.279 12.9802 161.369 13.2768 162.317 13.827C163.265 14.3771 163.997 15.1365 164.514 16.1052C165.031 17.0572 165.267 18.1828 165.221 19.482L165.208 19.8567C165.163 21.1559 164.848 22.2706 164.266 23.2008C163.683 24.131 162.899 24.8374 161.915 25.32C160.932 25.7859 159.823 25.9972 158.591 25.9541ZM158.671 23.6555C159.804 23.6952 160.733 23.3691 161.457 22.6773C162.199 21.9695 162.592 20.9743 162.637 19.6918L162.645 19.4669C162.69 18.1843 162.375 17.1727 161.701 16.432C161.027 15.6747 160.115 15.2759 158.966 15.2357C157.85 15.1966 156.921 15.531 156.179 16.2389C155.454 16.9306 155.07 17.9178 155.025 19.2003L155.017 19.4252C154.972 20.7077 155.287 21.7277 155.961 22.4851C156.652 23.2263 157.555 23.6165 158.671 23.6555Z"
            fill="#D9D9D9"
          />
          <path
            d="M167.665 26.166L169.238 13.9418L171.743 14.2641L171.558 15.7022L171.954 15.7533C172.219 15.2664 172.58 14.9348 173.04 14.7587C173.518 14.5682 174.08 14.5144 174.724 14.5974L176.187 14.7857L175.891 17.0917L174.328 16.8906C173.502 16.7843 172.794 16.9285 172.206 17.3232C171.619 17.7015 171.266 18.3617 171.144 19.3039L170.219 26.4946L167.665 26.166Z"
            fill="#D9D9D9"
          />
          <path
            d="M182.474 28.9659C181.254 28.6926 180.245 28.2018 179.447 27.4936C178.653 26.7691 178.1 25.8851 177.787 24.8414C177.494 23.7852 177.486 22.6391 177.763 21.403L177.829 21.1103C178.109 19.858 178.606 18.8248 179.317 18.0108C180.033 17.1805 180.894 16.6134 181.902 16.3097C182.929 15.9933 184.037 15.9681 185.224 16.2341C186.378 16.4929 187.328 16.979 188.074 17.6926C188.839 18.3935 189.364 19.254 189.648 20.2741C189.931 21.2941 189.937 22.4141 189.663 23.6338L189.45 24.5852L180.204 22.5137C180 23.5781 180.16 24.5021 180.685 25.2858C181.23 26.0568 182.006 26.5553 183.014 26.7813C183.958 26.9926 184.712 26.9397 185.279 26.6225C185.861 26.309 186.345 25.9049 186.729 25.4102L188.562 26.9482C188.232 27.3526 187.791 27.7577 187.239 28.1634C186.704 28.5729 186.048 28.87 185.272 29.0548C184.496 29.2397 183.563 29.21 182.474 28.9659ZM180.661 20.5919L187.32 22.0841C187.459 21.1588 187.293 20.3784 186.82 19.7431C186.351 19.0915 185.645 18.66 184.702 18.4486C183.759 18.2373 182.928 18.3244 182.21 18.71C181.511 19.083 180.995 19.7103 180.661 20.5919Z"
            fill="#D9D9D9"
          />
          <path
            d="M198.3 27.6162L199.138 25.421L206.051 28.0618L205.212 30.2571L198.3 27.6162Z"
            fill="#D9D9D9"
          />
          <path
            d="M211.772 38.8878L220.267 23.5884L229.906 28.9407L228.717 31.0826L221.438 27.0411L218.999 31.4342L225.665 35.1359L224.476 37.2778L217.81 33.5761L215.322 38.0567L222.709 42.1589L221.52 44.3008L211.772 38.8878Z"
            fill="#D9D9D9"
          />
          <path
            d="M222.725 44.9765L230.153 42.5943L229.905 34.9583L232.378 36.7005L232.466 42.1753L232.793 42.4057L237.978 40.6455L240.472 42.4021L233.177 44.7252L233.435 52.521L230.921 50.7501L230.85 45.1647L230.523 44.9344L225.239 46.7474L222.725 44.9765Z"
            fill="#D9D9D9"
          />
          <path
            d="M231.91 57.6595L243.47 44.7556L245.351 46.4404L244.167 47.7625L244.465 48.0294C245.067 47.8311 245.749 47.7818 246.51 47.8817C247.283 47.9926 248.117 48.4485 249.011 49.2492C249.78 49.9387 250.315 50.7533 250.614 51.6929C250.926 52.6436 250.958 53.6451 250.709 54.6974C250.483 55.7485 249.925 56.7705 249.036 57.7636L248.785 58.0429C247.896 59.036 246.942 59.7139 245.923 60.0768C244.915 60.4272 243.922 60.4994 242.943 60.2935C241.964 60.0876 241.089 59.6399 240.32 58.9504C239.724 58.4166 239.288 57.8917 239.011 57.3757C238.735 56.8598 238.573 56.3789 238.525 55.933C238.488 55.4747 238.506 55.0547 238.58 54.673L238.282 54.4061L233.828 59.3777L231.91 57.6595ZM241.262 56.7741C242.106 57.5304 243.034 57.8807 244.046 57.8251C245.058 57.7696 246.009 57.2452 246.899 56.2521L247.049 56.0846C247.928 55.1039 248.333 54.102 248.265 53.0789C248.209 52.0669 247.766 51.1883 246.934 50.4432C246.115 49.7092 245.193 49.3644 244.169 49.4089C243.157 49.4645 242.211 49.9826 241.333 50.9633L241.183 51.1308C240.293 52.1239 239.876 53.1265 239.931 54.1385C239.999 55.1616 240.443 56.0401 241.262 56.7741Z"
            fill="#D9D9D9"
          />
          <path
            d="M246.699 64.5962L259.424 52.5825L261.191 54.4549L248.466 66.4686L246.699 64.5962Z"
            fill="#D9D9D9"
          />
          <path
            d="M254.559 74.0354C253.79 73.0711 253.3 72.0551 253.088 70.9876C252.9 69.9227 253.005 68.8791 253.405 67.8568C253.805 66.8346 254.514 65.9182 255.53 65.1078L255.823 64.874C256.84 64.0636 257.884 63.5825 258.957 63.4307C260.043 63.2685 261.084 63.3978 262.08 63.8185C263.086 64.2523 263.974 64.9513 264.743 65.9157C265.512 66.88 265.996 67.9012 266.194 68.9791C266.393 70.057 266.292 71.1071 265.892 72.1294C265.505 73.1413 264.804 74.0525 263.787 74.8629L263.494 75.0966C262.477 75.9071 261.426 76.3934 260.341 76.5555C259.255 76.7177 258.209 76.5819 257.202 76.1482C256.209 75.704 255.328 74.9998 254.559 74.0354ZM256.357 72.6016C257.064 73.4878 257.915 73.9811 258.912 74.0817C259.932 74.1849 260.944 73.8365 261.947 73.0365L262.123 72.8962C263.127 72.0962 263.69 71.1991 263.814 70.205C263.951 69.2005 263.662 68.2487 262.945 67.3495C262.248 66.4764 261.39 65.9882 260.37 65.885C259.373 65.7844 258.373 66.1342 257.37 66.9342L257.194 67.0745C256.191 67.8745 255.62 68.7767 255.483 69.7812C255.37 70.7884 255.661 71.7285 256.357 72.6016Z"
            fill="#D9D9D9"
          />
          <path
            d="M260.657 81.5887L270.978 74.8518L272.358 76.9663L271.144 77.7588L271.363 78.0938C271.905 77.9789 272.392 78.0391 272.824 78.2744C273.279 78.5146 273.685 78.9068 274.04 79.4511L274.846 80.6863L272.899 81.9571L272.038 80.6382C271.583 79.9404 271.014 79.4957 270.332 79.3042C269.663 79.1035 268.931 79.2629 268.136 79.7821L262.065 83.745L260.657 81.5887Z"
            fill="#D9D9D9"
          />
          <path
            d="M267.842 94.1398C267.253 93.0371 266.967 91.9524 266.983 90.8857C267.014 89.8112 267.323 88.815 267.91 87.8972C268.52 86.9862 269.383 86.2325 270.501 85.6361L270.765 85.4948C271.898 84.8906 273.004 84.5927 274.086 84.6012C275.182 84.6018 276.174 84.8849 277.061 85.4503C277.971 86.0226 278.712 86.8454 279.285 87.9187C279.843 88.9627 280.094 89.9999 280.039 91.0303C280.007 92.0675 279.697 93.0264 279.109 93.907C278.521 94.7876 277.676 95.5222 276.573 96.1107L275.713 96.5698L271.252 88.2109C270.312 88.7504 269.716 89.4746 269.464 90.3835C269.235 91.2992 269.364 92.2129 269.85 93.1245C270.305 93.9773 270.838 94.5149 271.448 94.7373C272.065 94.9744 272.687 95.0771 273.312 95.0455L273.343 97.4382C272.821 97.4521 272.226 97.3821 271.559 97.2284C270.899 97.0894 270.246 96.7862 269.6 96.3187C268.953 95.8513 268.367 95.125 267.842 94.1398ZM273.006 87.303L276.219 93.3241C277.011 92.8258 277.494 92.1904 277.667 91.4178C277.855 90.6373 277.722 89.8207 277.267 88.9679C276.811 88.1151 276.203 87.5422 275.442 87.2493C274.704 86.9633 273.892 86.9812 273.006 87.303Z"
            fill="#D9D9D9"
          />
          <path
            d="M279.451 105.902L281.662 105.106L284.169 112.068L281.958 112.864L279.451 105.902Z"
            fill="#D9D9D9"
          />
          <path
            d="M279.636 123.395L296.766 119.811L299.023 130.603L296.625 131.104L294.92 122.956L290.002 123.985L291.563 131.448L289.165 131.95L287.604 124.486L282.587 125.536L284.318 133.807L281.92 134.309L279.636 123.395Z"
            fill="#D9D9D9"
          />
          <path
            d="M282.17 135.678L288.832 139.736L294.444 134.552L294.745 137.562L290.663 141.211L290.702 141.609L295.426 144.378L295.729 147.413L289.2 143.417L283.473 148.713L283.167 145.653L287.344 141.945L287.304 141.546L282.476 138.738L282.17 135.678Z"
            fill="#D9D9D9"
          />
        </svg>