<svg width="37" height="25" viewBox="0 0 37 25" fill="none" xmlns="http://www.w3.org/2000/svg">
<path d="M36.8301 22.8474C36.8301 23.952 35.9346 24.8474 34.8301 24.8474H2.83008C1.72551 24.8474 0.830078 23.952 0.830078 22.8474V22.8474C0.830078 21.7428 1.72551 20.8474 2.83008 20.8474H34.8301C35.9346 20.8474 36.8301 21.7428 36.8301 22.8474V22.8474ZM36.8301 12.8474C36.8301 13.952 35.9346 14.8474 34.8301 14.8474H2.83008C1.72551 14.8474 0.830078 13.952 0.830078 12.8474V12.8474C0.830078 11.7428 1.72551 10.8474 2.83008 10.8474H34.8301C35.9346 10.8474 36.8301 11.7428 36.8301 12.8474V12.8474ZM36.8301 2.84741C36.8301 3.95198 35.9346 4.84741 34.8301 4.84741H2.83008C1.72551 4.84741 0.830078 3.95198 0.830078 2.84741V2.84741C0.830078 1.74284 1.72551 0.847412 2.83008 0.847412H34.8301C35.9346 0.847412 36.8301 1.74284 36.8301 2.84741V2.84741Z" fill="white"/>
</svg>
